<svg id="Camada_1" data-name="Camada 1" xmlns="http://www.w3.org/2000/svg" viewBox="0 0 30 30"><defs><style>.cls-1{fill:#797f7e;opacity:0.75;}.cls-2{fill:#e26940;}</style></defs><path class="cls-1" d="M29.48,12.47a14.54,14.54,0,0,0-7-10.11,14,14,0,0,0-6.42-2L15.86.29H14.14c-.56.08-1.12.13-1.68.23A14.45,14.45,0,0,0,3.94,5.33,14.17,14.17,0,0,0,.37,13.52a14.32,14.32,0,0,0,3,10.42,14.36,14.36,0,0,0,8.59,5.43c.63.14,1.28.19,1.93.29l.28.05h1.72c.56-.08,1.12-.13,1.67-.23a14.42,14.42,0,0,0,8.41-4.67,14.49,14.49,0,0,0,3.7-8.33c0-.2,0-.41.07-.62V14.14C29.63,13.58,29.58,13,29.48,12.47Z"/><path class="cls-2" d="M23.55,9a5.25,5.25,0,0,0-4.9-1.84,5.09,5.09,0,0,0-3.13,1.72c-.18.19-.34.4-.52.61-.18-.22-.34-.43-.52-.62a5.09,5.09,0,0,0-5.57-1.5,5.43,5.43,0,0,0-3.71,4.1A11.43,11.43,0,0,0,5,12.68v.89l0,.13A7,7,0,0,0,6.2,17a14.18,14.18,0,0,0,2.45,2.79c1.83,1.64,3.69,3.24,5.55,4.84a1.16,1.16,0,0,0,1.66,0l4.26-3.67a22.24,22.24,0,0,0,3.32-3.4,7.35,7.35,0,0,0,1.47-3.25A6.19,6.19,0,0,0,23.55,9Z"/></svg>