<svg id="Camada_1" data-name="Camada 1" xmlns="http://www.w3.org/2000/svg" viewBox="0 0 30 30"><defs><style>.cls-1{fill:#797f7e;opacity:0.75;}.cls-2{fill:#04eb84;}</style></defs><path class="cls-1" d="M29.27,12.5a14.29,14.29,0,0,0-6.88-10,13.71,13.71,0,0,0-6.32-2,.79.79,0,0,1-.22-.05h-1.7c-.55.08-1.1.13-1.65.23A14.3,14.3,0,0,0,4.09,5.46,14.09,14.09,0,0,0,.57,13.54,14.17,14.17,0,0,0,3.5,23.81,14.25,14.25,0,0,0,12,29.17c.63.13,1.27.18,1.9.27l.28,0h1.7c.55-.07,1.1-.12,1.65-.22a14.19,14.19,0,0,0,8.29-4.61,14.33,14.33,0,0,0,3.64-8.2c0-.21.05-.41.07-.62V14.15C29.43,13.6,29.38,13,29.27,12.5Z"/><path class="cls-2" d="M23.93,10.19a2.15,2.15,0,0,1-.68,1.07L13.59,20.9a1.39,1.39,0,0,1-1.54.42,1.76,1.76,0,0,1-.59-.38Q9,18.49,6.54,16a1.41,1.41,0,0,1,.11-2.18,1.44,1.44,0,0,1,1.91.2l3.78,3.78a1.7,1.7,0,0,1,.15.21c.08-.1.11-.16.15-.2l8.79-8.77a1.41,1.41,0,0,1,1.51-.42,1.36,1.36,0,0,1,.95,1,.76.76,0,0,0,0,.11Z"/></svg>