<svg id="Camada_1" data-name="Camada 1" xmlns="http://www.w3.org/2000/svg" viewBox="0 0 30 30"><defs><style>.cls-1{fill:#797f7e;opacity:0.75;}.cls-2{fill:#fff;stroke:#fff;stroke-miterlimit:10;stroke-width:0.5px;}</style></defs><path class="cls-1" d="M29.48,12.47a14.54,14.54,0,0,0-7-10.11,14,14,0,0,0-6.42-2L15.86.29H14.14c-.56.08-1.12.13-1.68.23A14.45,14.45,0,0,0,3.94,5.33,14.17,14.17,0,0,0,.37,13.52a14.32,14.32,0,0,0,3,10.42,14.36,14.36,0,0,0,8.59,5.43c.63.14,1.28.19,1.93.29l.28.05h1.72c.56-.08,1.12-.13,1.67-.23a14.42,14.42,0,0,0,8.41-4.67,14.49,14.49,0,0,0,3.7-8.33c0-.2,0-.41.07-.62V14.14C29.63,13.58,29.58,13,29.48,12.47Z"/><path class="cls-2" d="M5,12.68a11.43,11.43,0,0,1,.2-1.17,5.43,5.43,0,0,1,3.71-4.1,5.09,5.09,0,0,1,5.57,1.5c.18.19.34.4.52.62.18-.21.34-.42.52-.61A5.09,5.09,0,0,1,18.65,7.2,5.25,5.25,0,0,1,23.55,9a6.19,6.19,0,0,1,1.36,5.18,7.35,7.35,0,0,1-1.47,3.25,22.24,22.24,0,0,1-3.32,3.4l-4.26,3.67a1.16,1.16,0,0,1-1.66,0c-1.86-1.6-3.72-3.2-5.55-4.84A14.18,14.18,0,0,1,6.2,17,7,7,0,0,1,5,13.7l0-.13ZM15,23.73l.13-.11c1.58-1.36,3.17-2.71,4.74-4.09a17.29,17.29,0,0,0,2.95-3.21,5.53,5.53,0,0,0,1-3.84A4.52,4.52,0,0,0,21.6,8.91a4,4,0,0,0-3.92-.19,4.78,4.78,0,0,0-1.86,1.71c-.07.1-.13.21-.21.31a.73.73,0,0,1-1.22,0,10.48,10.48,0,0,0-.87-1.12A3.85,3.85,0,0,0,9.69,8.41a4.16,4.16,0,0,0-3.2,2.89,5.43,5.43,0,0,0,.7,5A13.6,13.6,0,0,0,9.46,18.9c1.42,1.28,2.87,2.52,4.3,3.77Z"/></svg>