<svg id="Camada_1" data-name="Camada 1" xmlns="http://www.w3.org/2000/svg" viewBox="0 0 30 30"><defs><style>.cls-1{fill:#797f7e;opacity:0.75;}.cls-2{fill:none;stroke-miterlimit:10;}.cls-2,.cls-3{stroke:#fff;}.cls-3{fill:#fff;stroke-linecap:round;stroke-linejoin:round;stroke-width:0.15px;}</style></defs><path class="cls-1" d="M29.48,12.45a14.54,14.54,0,0,0-7-10.11,14,14,0,0,0-6.42-2,.87.87,0,0,1-.22,0H14.14C13.58.35,13,.4,12.46.5A14.45,14.45,0,0,0,3.94,5.31a14.17,14.17,0,0,0-3.57,8.2,14.3,14.3,0,0,0,3,10.41,14.42,14.42,0,0,0,8.59,5.44c.63.13,1.28.18,1.93.28l.28.05h1.72c.56-.08,1.12-.13,1.67-.23a14.42,14.42,0,0,0,8.41-4.67,14.49,14.49,0,0,0,3.7-8.33c0-.2,0-.41.07-.62V14.12C29.63,13.56,29.58,13,29.48,12.45Z"/><path class="cls-2" d="M13,7l.08,0a8.76,8.76,0,0,1,7.64,1.93,8.66,8.66,0,0,1,3.1,5.59,8.62,8.62,0,0,1-1,5.56c-.31.54-.7,1-1.06,1.55l-.06.09a6.9,6.9,0,0,1,2.84.3,11.45,11.45,0,0,1,1.6.71.68.68,0,0,1,.32.95.69.69,0,0,1-1,.23,6.39,6.39,0,0,0-2-.75,6.89,6.89,0,0,0-2.56,0,12.13,12.13,0,0,0-2.56.89,8.6,8.6,0,0,1-3.68.67,9,9,0,0,1-8.52-7.07,9,9,0,0,1,2-7.78A8.58,8.58,0,0,1,13,7m-.8,14.39a1.93,1.93,0,1,0-2-2A1.93,1.93,0,0,0,12.23,21.37Zm4.1-14.44a1,1,0,0,0-.47-.34c-1.39-.28-2.44-.11-2.62.36a1.31,1.31,0,0,0,.19.85c.32.53.77.52.81.85s-.29.39-.68.94A2.48,2.48,0,0,0,13,10.87,1.94,1.94,0,0,0,16.9,11a2.34,2.34,0,0,0-.54-1.44c-.33-.47-.64-.64-.57-.88s.22-.15.42-.37A1.19,1.19,0,0,0,16.33,6.93Zm3.11,9.18a1.93,1.93,0,1,0-1.93-2A1.92,1.92,0,0,0,19.44,16.11Zm-7-1.89a1.93,1.93,0,1,0-3.85,0,2,2,0,0,0,1.86,1.88A1.91,1.91,0,0,0,12.41,14.22Zm7.25,5.21a1.93,1.93,0,0,0-3.86,0,1.89,1.89,0,0,0,1.76,1.93A1.91,1.91,0,0,0,19.66,19.43ZM15,16.51a.77.77,0,0,0,.77-.75A.76.76,0,0,0,15,15a.79.79,0,0,0-.79.77A.77.77,0,0,0,15,16.51Z"/><path class="cls-3" d="M17.23,5.28H12.7a1.13,1.13,0,0,0-.56.13c-.38.22-.47.69-.18,1.23l.61,1.13.17.3.19.36,1.16,2.16a1.78,1.78,0,0,0,.54.72c.36.22.78.07,1.07-.46l.95-1.77L18,6.65a1.3,1.3,0,0,0,.17-.58C18.15,5.6,17.81,5.28,17.23,5.28ZM14.76,9.45h.41A.27.27,0,0,1,14.76,9.45Zm1.48-1.93V7.08A.41.41,0,0,1,16.24,7.52Z"/></svg>