<svg id="Camada_1" data-name="Camada 1" xmlns="http://www.w3.org/2000/svg" viewBox="0 0 30 30"><defs><style>.cls-1{fill:#797f7e;opacity:0.75;}.cls-2{fill:#fff;stroke:#fff;stroke-miterlimit:10;stroke-width:1.16px;}</style></defs><path class="cls-1" d="M29.27,12.5a14.29,14.29,0,0,0-6.88-10,13.71,13.71,0,0,0-6.32-2,.79.79,0,0,1-.22-.05h-1.7c-.55.08-1.1.13-1.65.23A14.3,14.3,0,0,0,4.09,5.46,14.09,14.09,0,0,0,.57,13.54,14.17,14.17,0,0,0,3.5,23.81,14.25,14.25,0,0,0,12,29.17c.63.13,1.27.18,1.9.27l.28,0h1.7c.55-.07,1.1-.12,1.65-.22a14.19,14.19,0,0,0,8.29-4.61,14.33,14.33,0,0,0,3.64-8.2c0-.21.05-.41.07-.62V14.15C29.43,13.6,29.38,13,29.27,12.5Z"/><path class="cls-2" d="M17,22.81a1.57,1.57,0,0,1-.61-.44L9.59,15.62a.8.8,0,0,1-.18-1,.78.78,0,0,1,.16-.2l7-6.94a.81.81,0,0,1,.85-.24.78.78,0,0,1,.35,1.27l-.14.14-6.24,6.23a.78.78,0,0,1-.15.1V15a.78.78,0,0,1,.15.1l6.29,6.27a.8.8,0,0,1,.17,1,.93.93,0,0,1-.52.37Z"/></svg>