<svg id="Camada_1" data-name="Camada 1" xmlns="http://www.w3.org/2000/svg" viewBox="0 0 30 30"><defs><style>.cls-1{fill:#e26940;}</style></defs><path class="cls-1" d="M17.21,12.47A3.51,3.51,0,0,1,16.61,9a2.8,2.8,0,0,1,2.57-2,2.82,2.82,0,0,1,2.58,2,3.53,3.53,0,0,1-.61,3.48,2.53,2.53,0,0,1-3.94,0ZM27.87.53a.31.31,0,0,0-.2-.25C24.26-.67,16.4,2.72,12.15,7.6a19.77,19.77,0,0,0-2.07,2.79,6.86,6.86,0,0,0-3.75.54C3.17,12.52,2.25,16.67,2,18.46a.71.71,0,0,0,.14.55.54.54,0,0,0,.47.19l5.07-.64c0,.44,0,.88.07,1.31a1.4,1.4,0,0,0,.33.8l2,2.24a1,1,0,0,0,.69.38,8.74,8.74,0,0,0,1.14.08l-.56,5.8a.72.72,0,0,0,.18.53.5.5,0,0,0,.47.17c1.56-.29,5.19-1.34,6.58-4.95A10.25,10.25,0,0,0,19,20.64a18.26,18.26,0,0,0,2.45-2.37C25.74,13.41,28.69,4.61,27.87.53Z"/><path class="cls-1" d="M9.91,24.54a2.56,2.56,0,0,1-1.44.63,2.2,2.2,0,0,1-2.35-2.7,4.69,4.69,0,0,1,.55-1.65c.17-.2,0-.54-.22-.5a3.35,3.35,0,0,0-2,1.14C3.05,23,2.92,28.83,2.92,28.83S8,28.68,9.36,27.12a4.23,4.23,0,0,0,1-2.34c0-.28-.27-.44-.44-.24Z"/></svg>