<svg id="Camada_1" data-name="Camada 1" xmlns="http://www.w3.org/2000/svg" viewBox="0 0 30 30"><defs><style>.cls-1{fill:#fff;}.cls-2{fill:#e26940;}.cls-3{fill:#00a6ff;stroke:#00a6ff;stroke-linecap:round;stroke-linejoin:round;stroke-width:0.22px;}</style></defs><circle cx="13.15" cy="15.46" r="10.32"/><rect class="cls-1" x="11.37" y="2.35" width="3.82" height="4.37"/><path class="cls-2" d="M10.42,3l.13,0A11.82,11.82,0,0,1,21.31,5.88a13.1,13.1,0,0,1,4.37,8.34,13.52,13.52,0,0,1-1.44,8.3c-.43.81-1,1.55-1.49,2.32l-.08.13a9.16,9.16,0,0,1,4,.45,17.65,17.65,0,0,1,2.25,1,1,1,0,0,1,.45,1.42.94.94,0,0,1-1.37.35,8.7,8.7,0,0,0-2.8-1.12,9.38,9.38,0,0,0-3.62.05A16.3,16.3,0,0,0,18,28.49a11.46,11.46,0,0,1-5.19,1,12,12,0,0,1-7.69-3,13.28,13.28,0,0,1-4.32-7.5A14,14,0,0,1,.6,14.46a13.43,13.43,0,0,1,3-7.13A12,12,0,0,1,10.42,3M9.29,24.5a2.88,2.88,0,0,0,0-5.75,2.88,2.88,0,0,0,0,5.75ZM15.08,3a1.4,1.4,0,0,0-.67-.51C12.46,2,11,2.29,10.73,3A2,2,0,0,0,11,4.26c.45.78,1.08.78,1.14,1.26s-.41.58-1,1.41a3.79,3.79,0,0,0-.74,1.9,2.73,2.73,0,1,0,5.45.23,3.57,3.57,0,0,0-.75-2.14c-.47-.71-.91-1-.82-1.33s.32-.22.6-.54A1.85,1.85,0,0,0,15.08,3Zm4.38,13.69a2.78,2.78,0,0,0,2.72-2.82,2.81,2.81,0,0,0-2.72-2.94,2.83,2.83,0,0,0-2.72,2.74A2.8,2.8,0,0,0,19.46,16.65Zm-9.9-2.82a2.81,2.81,0,0,0-2.67-2.94,2.83,2.83,0,0,0-2.77,3,2.86,2.86,0,0,0,2.62,2.81A2.8,2.8,0,0,0,9.56,13.83Zm10.21,7.79a2.73,2.73,0,1,0-3,2.88A2.77,2.77,0,0,0,19.77,21.62Zm-6.62-4.37a1.14,1.14,0,0,0,0-2.28,1.14,1.14,0,0,0,0,2.28Z"/><path class="cls-3" d="M14.43,8.82l1.34-2.64,1.85-3.65a1.9,1.9,0,0,0,.24-.86A1.12,1.12,0,0,0,16.59.5H10.2a1.64,1.64,0,0,0-.79.2c-.53.33-.66,1-.25,1.84L10,4.22l.23.46.27.52,1.65,3.24a2.5,2.5,0,0,0,.75,1.06C13.43,9.84,14,9.61,14.43,8.82ZM13,6.5,11.6,3.84a.59.59,0,0,1,0-.73c.19-.18.15-.14,3.11-.14.48,0,.68.39.44.86L13.8,6.57l-.11.15C13.45,7,13.15,6.89,13,6.5Z"/></svg>